<svg width="26" height="29" viewBox="0 0 26 29" fill="none" xmlns="http://www.w3.org/2000/svg">
<path d="M4.66675 0.666626C2.46141 0.666626 0.666748 2.46129 0.666748 4.66663V8.66663H3.33341V24.6666H10.0001V22H6.00008V8.66663H20.6667V4.66663C20.6667 3.93196 21.2641 3.33329 22.0001 3.33329C22.7535 3.33329 23.3334 3.91325 23.3334 4.66663V24.6666H26.0001V4.66663C26.0001 2.47333 24.1934 0.666626 22.0001 0.666626H4.66675ZM4.66675 3.33329H18.2292C18.0812 3.75063 18.0001 4.19996 18.0001 4.66663V5.99996H3.33341V4.66663C3.33341 3.93196 3.93208 3.33329 4.66675 3.33329ZM8.66675 11.3333V14H20.6667V11.3333H8.66675ZM8.66675 16.6666V19.3333H11.3334V16.6666H8.66675ZM16.6667 16.6666C14.4734 16.6666 12.6667 18.4733 12.6667 20.6666C12.6667 21.8352 13.1892 22.8829 14.0001 23.6171V28.4062L16.6667 26.7395L19.3334 28.4062V23.6171C20.1443 22.8829 20.6667 21.8352 20.6667 20.6666C20.6667 18.4733 18.8601 16.6666 16.6667 16.6666ZM16.6667 19.3333C17.4189 19.3333 18.0001 19.9145 18.0001 20.6666C18.0001 21.4188 17.4189 22 16.6667 22C15.9146 22 15.3334 21.4188 15.3334 20.6666C15.3334 19.9145 15.9146 19.3333 16.6667 19.3333Z" fill="#5124EA"/>
</svg>
