<svg width="25" height="28" viewBox="0 0 25 28" fill="none" xmlns="http://www.w3.org/2000/svg">
<path d="M5.99996 0.666626C4.54095 0.666626 3.33329 1.87429 3.33329 3.33329V5.99996H5.99996V3.33329H15.3333V9.99996H22V24.6666H14V27.3333H22C23.459 27.3333 24.6666 26.1256 24.6666 24.6666V8.66663L16.6666 0.666626H5.99996ZM5.99996 8.66663L4.401 10.7994C2.84367 12.8768 1.99996 15.404 1.99996 18V22L0.666626 24.6666V27.3333H4.66663V24.6666H7.33329V27.3333H11.3333V24.6666L9.99996 22V18C9.99996 15.404 9.15625 12.8768 7.59892 10.7994L5.99996 8.66663ZM5.99996 16.3333C6.91996 16.3333 7.66663 17.08 7.66663 18C7.66663 18.92 6.91996 19.6666 5.99996 19.6666C5.07996 19.6666 4.33329 18.92 4.33329 18C4.33329 17.08 5.07996 16.3333 5.99996 16.3333Z" fill="#5124EA"/>
</svg>
