<svg width="26" height="30" viewBox="0 0 26 30" fill="none" xmlns="http://www.w3.org/2000/svg">
<path d="M2.66667 0.333252C1.2 0.333252 0 1.53325 0 2.99992V21.6666H2.66667V2.99992H18.6667V0.333252H2.66667ZM8 5.66658C6.53333 5.66658 5.33333 6.86658 5.33333 8.33325V26.9999C5.33333 28.4666 6.53333 29.6666 8 29.6666H22.6667C24.1333 29.6666 25.3333 28.4666 25.3333 26.9999V12.3333L18.6667 5.66658H8ZM8 8.33325H17.3333V13.6666H22.6667V26.9999H8V8.33325ZM10.6667 16.3333V18.9999H20V16.3333H10.6667ZM10.6667 21.6666V24.3333H20V21.6666H10.6667Z" fill="#5124EA"/>
</svg>
