<svg width="28" height="28" viewBox="0 0 28 28" fill="none" xmlns="http://www.w3.org/2000/svg">
<path d="M8.66663 0.666626C6.47328 0.666626 4.66663 2.47328 4.66663 4.66663C4.66663 6.85997 6.47328 8.66663 8.66663 8.66663C9.91488 8.66663 11.0243 8.06997 11.7604 7.16142L12.388 8.15621L10.3281 11.3333H1.99996C1.26396 11.3333 0.666626 11.9306 0.666626 12.6666V26C0.666626 26.736 1.26396 27.3333 1.99996 27.3333H26C26.736 27.3333 27.3333 26.736 27.3333 26V12.6666C27.3333 11.9306 26.736 11.3333 26 11.3333H16.4869L14.802 14H23.4557C23.657 14.5653 24.1013 15.0096 24.6666 15.2109V23.4557C24.1013 23.657 23.657 24.1013 23.4557 24.6666H4.54423C4.3429 24.1013 3.89863 23.657 3.33329 23.4557V15.2109C3.89863 15.0096 4.3429 14.5653 4.54423 14H8.59892L6.86975 16.6666H9.99996L16.2187 7.13538C16.9543 8.05877 18.0732 8.66663 19.3333 8.66663C21.5266 8.66663 23.3333 6.85997 23.3333 4.66663C23.3333 2.47328 21.5266 0.666626 19.3333 0.666626C17.6837 0.666626 16.2564 1.69036 15.6484 3.13017L13.9843 5.69267L12.4062 3.19267L12.3776 3.2109C11.7889 1.73011 10.3459 0.666626 8.66663 0.666626ZM8.66663 3.33329C9.4188 3.33329 9.99996 3.91445 9.99996 4.66663C9.99996 5.4188 9.4188 5.99996 8.66663 5.99996C7.91445 5.99996 7.33329 5.4188 7.33329 4.66663C7.33329 3.91445 7.91445 3.33329 8.66663 3.33329ZM19.3333 3.33329C20.0855 3.33329 20.6666 3.91445 20.6666 4.66663C20.6666 5.4188 20.0855 5.99996 19.3333 5.99996C18.5811 5.99996 18 5.4188 18 4.66663C18 3.91445 18.5811 3.33329 19.3333 3.33329ZM14.0494 15.3385L12.3151 18C11.7991 18.852 11.044 19.324 9.99996 19.3333C9.99996 21.5426 11.7906 23.3333 14 23.3333C16.2093 23.3333 18 21.5426 18 19.3333C18 17.1413 16.2348 15.3665 14.0494 15.3385ZM7.33329 18C6.97967 18 6.64053 18.1404 6.39048 18.3905C6.14044 18.6405 5.99996 18.9797 5.99996 19.3333C5.99996 19.6869 6.14044 20.0261 6.39048 20.2761C6.64053 20.5261 6.97967 20.6666 7.33329 20.6666C7.68691 20.6666 8.02605 20.5261 8.2761 20.2761C8.52615 20.0261 8.66663 19.6869 8.66663 19.3333C8.66663 18.9797 8.52615 18.6405 8.2761 18.3905C8.02605 18.1404 7.68691 18 7.33329 18ZM20.6666 18C20.313 18 19.9739 18.1404 19.7238 18.3905C19.4738 18.6405 19.3333 18.9797 19.3333 19.3333C19.3333 19.6869 19.4738 20.0261 19.7238 20.2761C19.9739 20.5261 20.313 20.6666 20.6666 20.6666C21.0202 20.6666 21.3594 20.5261 21.6094 20.2761C21.8595 20.0261 22 19.6869 22 19.3333C22 18.9797 21.8595 18.6405 21.6094 18.3905C21.3594 18.1404 21.0202 18 20.6666 18Z" fill="#5124EA"/>
</svg>
