<svg width="32" height="32" viewBox="0 0 32 32" fill="none" xmlns="http://www.w3.org/2000/svg">
<path d="M13.3333 4C10.3919 4 7.99992 6.392 7.99992 9.33333C7.99992 12.2747 10.3919 14.6667 13.3333 14.6667C16.2746 14.6667 18.6666 12.2747 18.6666 9.33333C18.6666 6.392 16.2746 4 13.3333 4ZM26.6666 4C24.4732 4 22.6666 5.80665 22.6666 8C22.6666 9.72421 23.7901 11.1935 25.3333 11.75V14.6667H22.6666V17.3333H25.3333V20H27.9999V11.75C29.543 11.1935 30.6666 9.72421 30.6666 8C30.6666 5.80665 28.8599 4 26.6666 4ZM13.3333 6.66667C14.8039 6.66667 15.9999 7.86267 15.9999 9.33333C15.9999 10.804 14.8039 12 13.3333 12C11.8626 12 10.6666 10.804 10.6666 9.33333C10.6666 7.86267 11.8626 6.66667 13.3333 6.66667ZM26.6666 6.66667C27.4188 6.66667 27.9999 7.24783 27.9999 8C27.9999 8.75217 27.4188 9.33333 26.6666 9.33333C25.9144 9.33333 25.3333 8.75217 25.3333 8C25.3333 7.24783 25.9144 6.66667 26.6666 6.66667ZM13.3333 18.6667C9.14525 18.6667 1.33325 20.7267 1.33325 24.6667V28H25.3333V24.6667C25.3333 20.7267 17.5213 18.6667 13.3333 18.6667ZM11.5572 21.4479L12.1666 22.6667L11.7213 25.3333H3.99992V24.6667C3.99992 23.6629 7.71135 21.9022 11.5572 21.4479ZM15.1093 21.4479C18.9552 21.9022 22.6666 23.6629 22.6666 24.6667V25.3333H14.9452L14.4999 22.6667L15.1093 21.4479Z" fill="#5124EA"/>
</svg>
