<svg width="28" height="28" viewBox="0 0 28 28" fill="none" xmlns="http://www.w3.org/2000/svg">
<path d="M17.9297 0.67183C17.7047 0.663663 17.4773 0.709246 17.2786 0.807246L14 2.41141L10.7213 0.807246C10.0787 0.493913 9.30485 0.741809 8.96351 1.36714L7.18747 4.62495L3.59112 5.25516C2.88978 5.37783 2.4093 6.03287 2.49997 6.73954L2.97653 10.4192L0.437472 13.0416C-0.0585284 13.5536 -0.0622784 14.3667 0.427055 14.8854L2.97653 17.5807L2.46612 21.1953C2.36612 21.9019 2.83903 22.5607 3.53903 22.6927L7.18747 23.375L8.89841 26.5989C9.23174 27.2296 9.9978 27.485 10.6458 27.1796L13.9974 25.5885H14L17.2786 27.1927C17.4666 27.2847 17.666 27.3281 17.8619 27.3281C18.3366 27.3281 18.7938 27.0767 19.0338 26.6354L20.8099 23.3776L24.4062 22.7447C25.1076 22.6221 25.588 21.967 25.4974 21.2604L25.0234 17.5833L27.5599 14.9583C28.0559 14.4463 28.0596 13.6358 27.5703 13.1171L25.0234 10.4192L25.5338 6.80464C25.6338 6.09798 25.1583 5.43925 24.4583 5.30725L20.8125 4.62495L19.1015 1.401C18.9869 1.185 18.777 0.979455 18.5677 0.854121C18.377 0.740788 18.1547 0.679996 17.9297 0.67183ZM17.3281 3.74735L18.7604 6.45048C18.9537 6.81448 19.303 7.06731 19.7083 7.13798L22.7135 7.69266L22.2916 10.6927C22.2343 11.0993 22.3643 11.51 22.651 11.8046L24.7552 14.0208L23.1041 15.7291L22.651 16.1979C22.3657 16.4925 22.2343 16.9032 22.2916 17.3099L22.6901 20.3385L19.7083 20.8619C19.303 20.9339 18.9563 21.1868 18.763 21.5494L17.3047 24.2395L14.5833 22.9088C14.3993 22.8195 14.2 22.7734 14 22.7734C13.8 22.7734 13.5994 22.8181 13.414 22.9088L10.6562 24.2265L9.23695 21.5494C9.04362 21.1854 8.69697 20.9326 8.29164 20.8619L5.28643 20.3072L5.7083 17.3125C5.76697 16.9045 5.63433 16.4926 5.34633 16.1953L3.24216 13.9817L5.34633 11.8072C5.63299 11.5099 5.76697 11.0981 5.7083 10.6901L5.30726 7.66141L8.29164 7.13798C8.69564 7.06731 9.04362 6.81448 9.23695 6.45048L10.6927 3.76037L13.414 5.0911C13.7834 5.2711 14.214 5.2711 14.5833 5.0911L17.3281 3.74735ZM18.3906 10.3906L12.6666 16.1145L10.276 13.7239L8.3906 15.6093L12.6666 19.8854L20.276 12.276L18.3906 10.3906Z" fill="#5124EA"/>
</svg>
