<svg width="22" height="28" viewBox="0 0 22 28" fill="none" xmlns="http://www.w3.org/2000/svg">
<path d="M9.66671 0.666626V1.99996H3.00004C1.52937 1.99996 0.333374 3.19596 0.333374 4.66663V24.6666C0.333374 26.1373 1.52937 27.3333 3.00004 27.3333H19C20.4707 27.3333 21.6667 26.1373 21.6667 24.6666V4.66663C21.6667 3.19596 20.4707 1.99996 19 1.99996H12.3334V0.666626H9.66671ZM3.00004 4.66663H9.66671V5.99996H12.3334V4.66663H19V24.6666L3.00004 24.6692V4.66663ZM15.3907 10.3906L9.66671 16.1145L6.60942 13.0573L4.724 14.9427L9.66671 19.8854L17.2761 12.276L15.3907 10.3906Z" fill="#5124EA"/>
</svg>
