<svg width="30" height="31" viewBox="0 0 30 31" fill="none" xmlns="http://www.w3.org/2000/svg">
<path d="M12.6615 0.333374L8.66154 4.33337H6.3256L5.21362 1.66671H0.666748L0.679769 4.3516L3.44019 4.33858L7.83081 14.8776L6.23706 17.4297C5.70239 18.2817 5.67354 19.3596 6.16154 20.2396C6.64954 21.1196 7.57675 21.6667 8.58342 21.6667H11.4246C11.5406 20.7347 11.7759 19.8414 12.1173 19H8.58342L8.49748 18.8438L10.0678 16.3334H13.6798C14.5478 15.252 15.6199 14.3427 16.8412 13.6667H10.2162L7.43758 7.00004H23.7266L20.7162 12.4167C21.1376 12.366 21.5654 12.3334 22.0001 12.3334C22.5907 12.3334 23.1652 12.3924 23.7292 12.4844L27.1563 6.31514C27.3857 5.90181 27.3807 5.39762 27.1407 4.98962C26.902 4.58296 26.4643 4.33337 25.9923 4.33337H23.3282L19.3282 0.333374L17.3282 2.33337L19.3282 4.33337H16.6615L12.6615 0.333374ZM22.0001 15C17.5976 15 14.0001 18.5976 14.0001 23C14.0001 27.4025 17.5976 31 22.0001 31C26.4026 31 30.0001 27.4025 30.0001 23C30.0001 18.5976 26.4026 15 22.0001 15ZM22.0001 17.6667C24.9614 17.6667 27.3334 20.0387 27.3334 23C27.3334 25.9614 24.9614 28.3334 22.0001 28.3334C19.0388 28.3334 16.6667 25.9614 16.6667 23C16.6667 20.0387 19.0388 17.6667 22.0001 17.6667ZM23.2006 19.2657L20.9324 23.1329L23.8673 26.0677L25.0678 24.7344L23.0678 22.8672L24.6667 20.0677L23.2006 19.2657ZM8.66675 23C7.9595 23 7.28123 23.281 6.78113 23.7811C6.28103 24.2812 6.00008 24.9595 6.00008 25.6667C6.00008 26.3739 6.28103 27.0522 6.78113 27.5523C7.28123 28.0524 7.9595 28.3334 8.66675 28.3334C9.37399 28.3334 10.0523 28.0524 10.5524 27.5523C11.0525 27.0522 11.3334 26.3739 11.3334 25.6667C11.3334 24.9595 11.0525 24.2812 10.5524 23.7811C10.0523 23.281 9.37399 23 8.66675 23Z" fill="#5124EA"/>
</svg>
