<svg width="28" height="28" viewBox="0 0 28 28" fill="none" xmlns="http://www.w3.org/2000/svg">
<path d="M8.66675 0.666626C6.4734 0.666626 4.66675 2.47328 4.66675 4.66663C4.66675 6.85997 6.4734 8.66663 8.66675 8.66663C9.915 8.66663 11.0245 8.06997 11.7605 7.16142L12.3881 8.15621L10.3282 11.3333H2.00008C1.26408 11.3333 0.666748 11.9306 0.666748 12.6666V26C0.666748 26.736 1.26408 27.3333 2.00008 27.3333H26.0001C26.7361 27.3333 27.3334 26.736 27.3334 26V12.6666C27.3334 11.9306 26.7361 11.3333 26.0001 11.3333H16.4871L14.8022 14H23.4558C23.6571 14.5653 24.1014 15.0096 24.6667 15.2109V23.4557C24.1014 23.657 23.6571 24.1013 23.4558 24.6666H4.54435C4.34302 24.1013 3.89875 23.657 3.33341 23.4557V15.2109C3.89875 15.0096 4.34302 14.5653 4.54435 14H8.59904L6.86987 16.6666H10.0001L16.2188 7.13538C16.9544 8.05877 18.0733 8.66663 19.3334 8.66663C21.5268 8.66663 23.3334 6.85997 23.3334 4.66663C23.3334 2.47328 21.5268 0.666626 19.3334 0.666626C17.6838 0.666626 16.2566 1.69036 15.6485 3.13017L13.9845 5.69267L12.4063 3.19267L12.3777 3.2109C11.789 1.73011 10.346 0.666626 8.66675 0.666626ZM8.66675 3.33329C9.41892 3.33329 10.0001 3.91445 10.0001 4.66663C10.0001 5.4188 9.41892 5.99996 8.66675 5.99996C7.91458 5.99996 7.33342 5.4188 7.33342 4.66663C7.33342 3.91445 7.91458 3.33329 8.66675 3.33329ZM19.3334 3.33329C20.0856 3.33329 20.6667 3.91445 20.6667 4.66663C20.6667 5.4188 20.0856 5.99996 19.3334 5.99996C18.5812 5.99996 18.0001 5.4188 18.0001 4.66663C18.0001 3.91445 18.5812 3.33329 19.3334 3.33329ZM14.0496 15.3385L12.3152 18C11.7992 18.852 11.0441 19.324 10.0001 19.3333C10.0001 21.5426 11.7907 23.3333 14.0001 23.3333C16.2094 23.3333 18.0001 21.5426 18.0001 19.3333C18.0001 17.1413 16.2349 15.3665 14.0496 15.3385ZM7.33342 18C6.97979 18 6.64065 18.1404 6.39061 18.3905C6.14056 18.6405 6.00008 18.9797 6.00008 19.3333C6.00008 19.6869 6.14056 20.0261 6.39061 20.2761C6.64065 20.5262 6.97979 20.6666 7.33342 20.6666C7.68704 20.6666 8.02618 20.5262 8.27622 20.2761C8.52627 20.0261 8.66675 19.6869 8.66675 19.3333C8.66675 18.9797 8.52627 18.6405 8.27622 18.3905C8.02618 18.1404 7.68704 18 7.33342 18ZM20.6667 18C20.3131 18 19.974 18.1404 19.7239 18.3905C19.4739 18.6405 19.3334 18.9797 19.3334 19.3333C19.3334 19.6869 19.4739 20.0261 19.7239 20.2761C19.974 20.5262 20.3131 20.6666 20.6667 20.6666C21.0204 20.6666 21.3595 20.5262 21.6096 20.2761C21.8596 20.0261 22.0001 19.6869 22.0001 19.3333C22.0001 18.9797 21.8596 18.6405 21.6096 18.3905C21.3595 18.1404 21.0204 18 20.6667 18Z" fill="#5124EA"/>
</svg>
