<svg width="30" height="24" viewBox="0 0 30 24" fill="none" xmlns="http://www.w3.org/2000/svg">
<path d="M0.333374 0V8H5.66671V24H24.3334V8H29.6667V0H0.333374ZM8.33337 2.66667H21.6667V21.3333H8.33337V2.66667ZM16.4922 5.33333C11.6189 5.33467 11.0718 9.53221 11.0105 10.5469V10.6667H9.66671V12H11.0079L11.0052 13.3333H9.66671V14.6667H11V14.7578C10.9987 16.8285 12.1187 20 16.2787 20C17.3494 19.9987 18.2752 19.8055 18.6459 19.7135L18.2605 17.3203C18.0111 17.4243 17.4403 17.625 16.599 17.625C14.1403 17.625 13.6605 15.3005 13.6459 14.7578V14.6667H16.3334V13.3333H13.6537L13.6589 12H16.3334V10.6667H13.6667V10.5469C13.7307 9.55221 14.5282 7.72917 16.6615 7.72917C17.3642 7.72917 18.0285 7.95227 18.2579 8.04427L18.6459 5.63802C18.2872 5.54469 17.3856 5.33333 16.4922 5.33333Z" fill="#5124EA"/>
</svg>
