<svg width="28" height="31" viewBox="0 0 28 31" fill="none" xmlns="http://www.w3.org/2000/svg">
<path d="M12 0.333252C10.2613 0.333252 8.79546 1.44925 8.24479 2.99992H2.66667C1.19333 2.99992 0 4.19325 0 5.66658V24.3333C0 25.8066 1.19333 26.9999 2.66667 26.9999H12V24.3333H2.66667V5.66658H12C11.264 5.66658 10.6667 5.06925 10.6667 4.33325C10.6667 3.59725 11.264 2.99992 12 2.99992C12.736 2.99992 13.3333 3.59725 13.3333 4.33325C13.3333 5.06925 12.736 5.66658 12 5.66658H21.3333V10.9999H24V5.66658C24 4.19325 22.8067 2.99992 21.3333 2.99992H15.7552C15.2045 1.44925 13.7387 0.333252 12 0.333252ZM16 13.6666C15.264 13.6666 14.6667 14.2639 14.6667 14.9999V29.6666C14.6667 30.4026 15.264 30.9999 16 30.9999H26.6667C27.4027 30.9999 28 30.4026 28 29.6666V14.9999C28 14.2639 27.4027 13.6666 26.6667 13.6666H16ZM17.3333 16.3333H25.3333V18.9999H17.3333V16.3333ZM18.6667 21.6666C19.4027 21.6666 20 22.2639 20 22.9999C20 23.7359 19.4027 24.3333 18.6667 24.3333C17.9307 24.3333 17.3333 23.7359 17.3333 22.9999C17.3333 22.2639 17.9307 21.6666 18.6667 21.6666ZM24 21.6666C24.736 21.6666 25.3333 22.2639 25.3333 22.9999C25.3333 23.7359 24.736 24.3333 24 24.3333C23.264 24.3333 22.6667 23.7359 22.6667 22.9999C22.6667 22.2639 23.264 21.6666 24 21.6666ZM18.6667 25.6666C19.4027 25.6666 20 26.2639 20 26.9999C20 27.7359 19.4027 28.3333 18.6667 28.3333C17.9307 28.3333 17.3333 27.7359 17.3333 26.9999C17.3333 26.2639 17.9307 25.6666 18.6667 25.6666ZM24 25.6666C24.736 25.6666 25.3333 26.2639 25.3333 26.9999C25.3333 27.7359 24.736 28.3333 24 28.3333C23.264 28.3333 22.6667 27.7359 22.6667 26.9999C22.6667 26.2639 23.264 25.6666 24 25.6666Z" fill="#5124EA"/>
</svg>
