<svg width="23" height="28" viewBox="0 0 23 28" fill="none" xmlns="http://www.w3.org/2000/svg">
<path d="M4 0.666748V16.6667H6.66667V3.33341H20V22.6667C20 23.8334 19.1667 24.6667 18 24.6667C16.8333 24.6667 16 23.8334 16 22.6667C16 21.5001 16.8333 20.6667 18 20.6667V18.0001H4.66667C2.10417 18.0001 0 20.1042 0 22.6667C0 25.2292 2.10417 27.3334 4.66667 27.3334H18C20.5625 27.3334 22.6667 25.2292 22.6667 22.6667V0.666748H4ZM4.66667 20.6667H13.8333C13.5312 21.2813 13.3333 21.9376 13.3333 22.6667C13.3333 23.3959 13.5312 24.0522 13.8333 24.6667H4.66667C3.5 24.6667 2.66667 23.8334 2.66667 22.6667C2.66667 21.5001 3.5 20.6667 4.66667 20.6667Z" fill="#5124EA"/>
</svg>
