<svg width="22" height="28" viewBox="0 0 22 28" fill="none" xmlns="http://www.w3.org/2000/svg">
<path d="M9.66671 0.666748V2.00008H3.00004C1.52937 2.00008 0.333374 3.19608 0.333374 4.66675V24.6667C0.333374 26.1374 1.52937 27.3334 3.00004 27.3334H19C20.4707 27.3334 21.6667 26.1374 21.6667 24.6667V4.66675C21.6667 3.19608 20.4707 2.00008 19 2.00008H12.3334V0.666748H9.66671ZM3.00004 4.66675H9.66671V6.00008H12.3334V4.66675H19V24.6667L3.00004 24.6694V4.66675ZM15.3907 10.3907L9.66671 16.1147L6.60942 13.0574L4.724 14.9428L9.66671 19.8855L17.2761 12.2761L15.3907 10.3907Z" fill="#5124EA"/>
</svg>
