<svg width="42" height="44" viewBox="0 0 42 44" fill="none" xmlns="http://www.w3.org/2000/svg">
<path d="M24 0V8V12V16H20L18 10L10 16L8 10L0 16V38H16V34H12V32H8V34H4V18L5.96094 16.5312L6.20703 17.2656L7.96094 22.5312L12.3984 19.1992L15.9609 16.5312L16.207 17.2656L17.1172 20H20H24H28V18V16V12H32V20H36V12V8V0H24ZM28 4H32V8H28V4ZM8 24V28H12V24H8ZM16 24V28H20V24H16ZM24 24V38H20C20 41.308 22.692 44 26 44H36C39.2899 44 42 41.2899 42 38V24H24ZM28 28H38V38C38 39.1301 37.1301 40 36 40C34.898 40 34 39.104 34 38H28V28Z" fill="#5124EA"/>
</svg>
