<svg width="97" height="32" viewBox="0 0 97 32" fill="none" xmlns="http://www.w3.org/2000/svg">
<path d="M16.779 10.826C17.2771 10.6292 17.7749 10.4363 18.3062 10.3382C19.5284 10.113 20.9956 10.3762 21.9919 11.0212C21.9976 11.1768 21.943 11.3179 21.8491 11.4492C20.1848 13.7787 17.9679 15.2996 15.1954 16.0047C14.0437 16.2977 12.8712 16.391 11.6888 16.3141C10.0507 16.2075 8.50382 15.7608 7.05393 14.9865C6.9339 14.9222 6.82018 14.8438 6.70962 14.7638C4.53005 13.1792 2.3511 11.5931 0.172155 10.007C0.130459 9.97663 0.090026 9.94405 0 9.87509C0.151939 9.82163 0.262813 9.78019 0.375266 9.74381C3.65632 8.68281 6.938 7.6234 10.2187 6.56177C16.1507 4.64256 22.082 2.72271 28.0132 0.803179C28.6933 0.583009 29.3731 0.361573 30.0526 0.139505C30.1271 0.115147 30.2314 0.124004 30.2285 0C30.2917 0 30.3549 0 30.418 0C30.4225 0.136974 30.4307 0.273631 30.431 0.410605C30.4351 2.20297 30.4379 3.99565 30.4411 5.78801C30.4566 14.4025 30.4721 23.017 30.4875 31.6318C30.4879 31.7371 30.491 31.8434 30.4765 31.9469C30.4733 31.9696 30.4 31.9826 30.359 32C29.7676 31.5622 29.1792 31.1209 28.585 30.6869C27.2333 29.6999 25.8855 28.7076 24.5237 27.7342C23.391 26.9247 22.5002 25.8975 21.7673 24.7268C20.8889 23.3235 20.3361 21.7937 20.1368 20.1516C19.7662 17.1005 20.4795 14.319 22.2895 11.8288C22.3719 11.7155 22.4869 11.626 22.6041 11.5077C24.1361 12.8477 24.7515 14.4974 24.5641 16.5368C25.3605 15.4958 25.6963 14.3753 25.605 13.1346C25.5134 11.8889 24.9975 10.8269 24.1042 9.94405C24.4795 9.2693 24.7186 8.56798 24.7565 7.80656C24.7594 7.7822 24.7622 7.75816 24.7654 7.7338C24.7508 7.74614 24.7363 7.75848 24.7218 7.77081C24.1971 7.95967 23.7713 8.29783 23.3682 8.66984C23.2374 8.79068 23.107 8.91184 22.9532 9.05419C22.8843 9.02604 22.7889 8.98776 22.6938 8.94854C20.6235 8.09063 18.2374 8.73722 16.9002 10.5201C16.838 10.6033 16.7903 10.6972 16.7363 10.7865C16.7354 10.8118 16.7341 10.8368 16.7325 10.8621C16.7486 10.8504 16.7638 10.8383 16.779 10.826Z" fill="white"/>
<path d="M50.8713 24.2453C50.0029 24.2453 49.1339 24.2453 48.2425 24.2453C48.2425 23.7917 48.2425 23.3536 48.2425 22.8607C48.1752 22.9129 48.1439 22.9294 48.1225 22.9547C47.1281 24.1188 45.8387 24.5946 44.3401 24.5759C41.3746 24.5389 39.0409 22.4612 38.5023 19.5901C38.1716 17.8275 38.3779 16.1313 39.352 14.6034C40.6288 12.601 42.4973 11.6899 44.8613 11.8171C46.1766 11.8879 47.2718 12.4292 48.1291 13.4393C48.1477 13.4611 48.173 13.4772 48.2267 13.5225C48.2267 13.0464 48.2267 12.6 48.2267 12.1619C48.4718 12.0926 50.3946 12.0749 50.8716 12.1328C50.8713 16.1629 50.8713 20.1953 50.8713 24.2453ZM40.8992 18.1577C40.8898 18.9552 41.0616 19.711 41.4814 20.3895C42.2863 21.6896 43.4977 22.2027 44.9779 22.0537C46.4429 21.9063 47.4354 21.0861 47.9566 19.7141C48.2147 19.0349 48.2678 18.3251 48.1825 17.5991C48.0027 16.0715 46.9777 14.568 45.0957 14.3317C43.702 14.1567 42.5102 14.561 41.6513 15.7257C41.1213 16.4438 40.9052 17.2714 40.8992 18.1577Z" fill="white"/>
<path d="M76.037 19.1643C76.2158 20.6343 77.1537 21.8143 78.6304 22.1449C79.8813 22.4248 81.0535 22.1708 82.1702 21.5951C82.4958 21.4271 82.7988 21.2158 83.1469 21.0029C83.5682 21.6061 83.9988 22.2224 84.4407 22.8547C84.3658 22.9224 84.3014 22.9869 84.2306 23.0436C83.2085 23.8569 82.0444 24.3292 80.7525 24.4937C79.6889 24.629 78.6285 24.6319 77.5905 24.3345C75.6671 23.7832 74.323 22.5713 73.6698 20.6755C72.9922 18.7091 73.068 16.7469 74.0144 14.8764C74.8711 13.1827 76.2907 12.2125 78.1518 11.8908C79.2618 11.6988 80.3576 11.7614 81.4124 12.1746C83.0265 12.8066 84.0506 14.0055 84.6195 15.6176C85.0156 16.7406 85.0851 17.9018 84.9872 19.0792C84.9856 19.0979 84.9698 19.1156 84.9452 19.165C81.9873 19.1643 79.0139 19.1643 76.037 19.1643ZM82.2937 17.1344C82.1531 15.2531 80.8084 14.0757 78.9422 14.1665C77.3883 14.2424 76.0307 15.6403 76.067 17.1344C78.137 17.1344 80.207 17.1344 82.2937 17.1344Z" fill="white"/>
<path d="M70.3695 21.2698C70.7223 21.9822 71.0628 22.6689 71.4106 23.3706C70.7315 23.8324 70.0188 24.1782 69.2373 24.3809C68.315 24.6204 67.3828 24.6489 66.4528 24.4619C64.8798 24.1456 63.9198 23.1738 63.5294 21.6269C63.3923 21.0834 63.3326 20.5286 63.3326 19.9677C63.3329 18.2703 63.3319 16.5731 63.3316 14.8756C63.3316 14.7719 63.3316 14.6678 63.3316 14.5327C62.529 14.5327 61.7456 14.5327 60.9395 14.5327C60.9395 13.7175 60.9395 12.9337 60.9395 12.1204C61.7181 12.1204 62.5024 12.1204 63.3152 12.1204C63.3152 10.8847 63.3152 9.67792 63.3152 8.448C64.211 8.448 65.0781 8.448 65.9768 8.448C65.9768 9.64881 65.9768 10.8547 65.9768 12.0925C67.5379 12.0925 69.0687 12.0925 70.6222 12.0925C70.6222 12.9087 70.6222 13.6929 70.6222 14.5081C69.0961 14.5081 67.5632 14.5081 66.0106 14.5081C66.0021 14.6175 65.9904 14.6979 65.9904 14.7785C65.9894 16.4444 65.9828 18.1099 65.9958 19.7757C65.9983 20.1091 66.0397 20.4517 66.1256 20.7734C66.3398 21.5763 66.957 22.0426 67.7865 22.0771C68.4227 22.1036 69.014 21.9268 69.5851 21.6706C69.8426 21.5548 70.0883 21.4143 70.3695 21.2698Z" fill="white"/>
<path d="M55.3115 24.2401C55.3115 18.1626 55.3115 12.1023 55.3115 6.021C56.1837 6.021 57.0517 6.021 57.9406 6.021C57.9406 12.082 57.9406 18.1497 57.9406 24.2401C57.0789 24.2401 56.2112 24.2401 55.3115 24.2401Z" fill="white"/>
<path d="M96.7464 12.1453C96.536 13.0168 96.3294 13.8721 96.1168 14.7516C95.5621 14.5051 95.0052 14.3776 94.4275 14.3305C92.8383 14.2002 91.637 15.0641 91.3227 16.6122C91.2456 16.9912 91.2147 17.3854 91.2128 17.7726C91.2023 19.8066 91.2077 21.841 91.2077 23.8753C91.2077 23.9905 91.2077 24.1053 91.2077 24.242C90.3242 24.242 89.4584 24.242 88.5764 24.242C88.5764 20.1998 88.5764 16.1694 88.5764 12.1218C89.4489 12.1218 90.3055 12.1218 91.1935 12.1218C91.1935 12.5521 91.1935 12.9658 91.1935 13.416C91.2522 13.3676 91.2781 13.353 91.2946 13.3315C91.9428 12.4837 92.814 12.0149 93.8532 11.858C94.737 11.7248 95.6158 11.7717 96.476 12.0355C96.5635 12.0627 96.6465 12.1044 96.7464 12.1453Z" fill="white"/>
<path d="M24.7227 7.77139C24.7372 7.75905 24.7517 7.74671 24.7662 7.73438C24.7634 7.75873 24.7602 7.78277 24.7574 7.80713C24.7457 7.79543 24.734 7.78341 24.7227 7.77139Z" fill="white"/>
<path d="M16.779 10.826C16.7638 10.8384 16.7486 10.8504 16.7332 10.8627C16.7344 10.8374 16.7357 10.8124 16.7369 10.7871C16.7521 10.7985 16.7663 10.8115 16.779 10.826Z" fill="#5124EA"/>
</svg>
