<svg width="168" height="36" viewBox="0 0 168 36" fill="none" xmlns="http://www.w3.org/2000/svg">
<path d="M19.4601 12.1792C20.0171 11.9579 20.5737 11.7408 21.1678 11.6305C22.5343 11.3771 24.1749 11.6732 25.2889 12.3988C25.2952 12.5739 25.2341 12.7326 25.1292 12.8803C23.2682 15.501 20.7895 17.2121 17.6896 18.0053C16.4018 18.3349 15.0908 18.4399 13.7688 18.3534C11.9371 18.2335 10.2075 17.731 8.58637 16.8598C8.45215 16.7875 8.32501 16.6993 8.20139 16.6092C5.76436 14.8266 3.32803 13.0423 0.891709 11.2579C0.845087 11.2237 0.799879 11.1871 0.699219 11.1095C0.869105 11.0493 0.993075 11.0027 1.11881 10.9618C4.78743 9.76816 8.45675 8.57633 12.125 7.382C18.7576 5.22288 25.3895 3.06305 32.0214 0.903577C32.7818 0.655885 33.5419 0.40677 34.3016 0.156943C34.385 0.12954 34.5015 0.139505 34.4984 0C34.569 0 34.6396 0 34.7103 0C34.7152 0.154096 34.7244 0.307835 34.7248 0.461931C34.7293 2.47834 34.7325 4.49511 34.7361 6.51152C34.7534 16.2028 34.7707 25.8941 34.788 35.5858C34.7883 35.7043 34.7919 35.8238 34.7756 35.9402C34.7721 35.9658 34.6901 35.9804 34.6442 36C33.9831 35.5075 33.3251 35.011 32.6607 34.5227C31.1494 33.4124 29.6423 32.296 28.1197 31.201C26.8531 30.2903 25.8571 29.1347 25.0377 27.8176C24.0555 26.239 23.4374 24.5179 23.2146 22.6706C22.8003 19.2381 23.5978 16.1089 25.6216 13.3074C25.7137 13.18 25.8423 13.0793 25.9733 12.9462C27.6863 14.4537 28.3743 16.3096 28.1649 18.6039C29.0553 17.4327 29.4307 16.1722 29.3287 14.7764C29.2262 13.375 28.6495 12.1803 27.6507 11.1871C28.0702 10.428 28.3376 9.63898 28.38 8.78238C28.3832 8.75498 28.3864 8.72793 28.3899 8.70053C28.3736 8.71441 28.3574 8.72829 28.3411 8.74217C27.7545 8.95463 27.2784 9.33506 26.8277 9.75357C26.6815 9.88952 26.5356 10.0258 26.3636 10.186C26.2866 10.1543 26.18 10.1112 26.0737 10.0671C23.7588 9.10196 21.0908 9.82938 19.5957 11.8351C19.5262 11.9287 19.4728 12.0344 19.4124 12.1348C19.4114 12.1632 19.41 12.1913 19.4082 12.2198C19.4262 12.2066 19.4432 12.1931 19.4601 12.1792Z" fill="white"/>
<path d="M57.5793 27.2759C56.6084 27.2759 55.6368 27.2759 54.6401 27.2759C54.6401 26.7656 54.6401 26.2727 54.6401 25.7182C54.5648 25.7769 54.5299 25.7954 54.5059 25.8239C53.394 27.1336 51.9523 27.6688 50.2767 27.6478C46.961 27.6062 44.3516 25.2688 43.7494 22.0388C43.3796 20.0558 43.6102 18.1476 44.6995 16.4287C46.1271 14.176 48.2162 13.1511 50.8595 13.2941C52.3302 13.3739 53.5547 13.9828 54.5133 15.1191C54.5341 15.1436 54.5624 15.1618 54.6224 15.2127C54.6224 14.6771 54.6224 14.1749 54.6224 13.682C54.8965 13.6041 57.0464 13.5842 57.5797 13.6493C57.5793 18.1832 57.5793 22.7196 57.5793 27.2759ZM46.4294 20.4274C46.4188 21.3245 46.6109 22.1747 47.0803 22.9381C47.9803 24.4008 49.3348 24.978 50.9898 24.8104C52.6279 24.6445 53.7377 23.7217 54.3204 22.1783C54.609 21.4142 54.6683 20.6156 54.573 19.7989C54.372 18.0804 53.2259 16.3889 51.1216 16.123C49.5633 15.9262 48.2307 16.381 47.2704 17.6914C46.6777 18.4992 46.4361 19.4302 46.4294 20.4274Z" fill="white"/>
<path d="M85.7178 21.5599C85.9177 23.2137 86.9663 24.5411 88.6175 24.913C90.0162 25.2279 91.3269 24.9422 92.5754 24.2945C92.9395 24.1055 93.2782 23.8678 93.6675 23.6283C94.1386 24.3069 94.62 25.0002 95.1141 25.7116C95.0304 25.7877 94.9584 25.8603 94.8793 25.924C93.7363 26.839 92.4348 27.3703 90.9903 27.5554C89.8011 27.7077 88.6154 27.7109 87.4548 27.3764C85.3042 26.7561 83.8014 25.3927 83.071 23.2599C82.3134 21.0478 82.3981 18.8403 83.4563 16.736C84.4142 14.8306 86.0014 13.7391 88.0824 13.3772C89.3236 13.1612 90.5488 13.2316 91.7281 13.6964C93.5329 14.4074 94.6779 15.7562 95.314 17.5698C95.7569 18.8332 95.8346 20.1396 95.7252 21.4642C95.7234 21.4852 95.7057 21.5051 95.6782 21.5606C92.3709 21.5599 89.0463 21.5599 85.7178 21.5599ZM92.7135 19.2762C92.5563 17.1598 91.0528 15.8352 88.9661 15.9374C87.2288 16.0228 85.7107 17.5954 85.7514 19.2762C88.0658 19.2762 90.3803 19.2762 92.7135 19.2762Z" fill="white"/>
<path d="M79.3808 23.9286C79.7753 24.7301 80.156 25.5027 80.5449 26.292C79.7855 26.8116 78.9887 27.2006 78.1149 27.4287C77.0836 27.6981 76.0413 27.7301 75.0015 27.5198C73.2426 27.1639 72.1693 26.0707 71.7327 24.3304C71.5795 23.719 71.5127 23.0948 71.5127 22.4638C71.5131 20.5542 71.512 18.6449 71.5116 16.7353C71.5116 16.6185 71.5116 16.5014 71.5116 16.3495C70.6142 16.3495 69.7383 16.3495 68.8369 16.3495C68.8369 15.4324 68.8369 14.5505 68.8369 13.6355C69.7075 13.6355 70.5845 13.6355 71.4933 13.6355C71.4933 12.2455 71.4933 10.8878 71.4933 9.50415C72.4949 9.50415 73.4644 9.50415 74.4693 9.50415C74.4693 10.8551 74.4693 12.2117 74.4693 13.6042C76.2148 13.6042 77.9263 13.6042 79.6633 13.6042C79.6633 14.5224 79.6633 15.4046 79.6633 16.3217C77.9571 16.3217 76.243 16.3217 74.5071 16.3217C74.4975 16.4449 74.4845 16.5353 74.4845 16.626C74.4834 18.5001 74.476 20.3738 74.4905 22.2478C74.4933 22.6229 74.5396 23.0083 74.6356 23.3703C74.8751 24.2735 75.5652 24.798 76.4927 24.8368C77.2041 24.8667 77.8652 24.6678 78.5038 24.3795C78.7917 24.2493 79.0664 24.0913 79.3808 23.9286Z" fill="white"/>
<path d="M62.5444 27.2699C62.5444 20.4328 62.5444 13.6149 62.5444 6.77344C63.5196 6.77344 64.4902 6.77344 65.4841 6.77344C65.4841 13.5921 65.4841 20.4182 65.4841 27.2699C64.5205 27.2699 63.5503 27.2699 62.5444 27.2699Z" fill="white"/>
<path d="M108.873 13.6633C108.638 14.6438 108.407 15.6061 108.169 16.5954C107.549 16.3182 106.926 16.1748 106.28 16.1217C104.504 15.9751 103.16 16.947 102.809 18.6887C102.723 19.115 102.688 19.5585 102.686 19.994C102.674 22.2823 102.68 24.571 102.68 26.8597C102.68 26.9892 102.68 27.1184 102.68 27.2721C101.692 27.2721 100.724 27.2721 99.7383 27.2721C99.7383 22.7247 99.7383 18.1905 99.7383 13.637C100.714 13.637 101.672 13.637 102.664 13.637C102.664 14.121 102.664 14.5865 102.664 15.0929C102.73 15.0384 102.759 15.0221 102.778 14.9979C103.502 14.0441 104.476 13.5167 105.638 13.3402C106.627 13.1904 107.609 13.243 108.571 13.5398C108.669 13.5704 108.762 13.6174 108.873 13.6633Z" fill="white"/>
<path d="M28.3423 8.74281C28.3585 8.72893 28.3748 8.71505 28.391 8.70117C28.3878 8.72857 28.3843 8.75562 28.3811 8.78302C28.3681 8.76986 28.355 8.75633 28.3423 8.74281Z" fill="white"/>
<path d="M19.4599 12.1793C19.443 12.1932 19.426 12.2067 19.4087 12.2206C19.4101 12.1921 19.4115 12.164 19.4129 12.1355C19.4299 12.1483 19.4458 12.1629 19.4599 12.1793Z" fill="white"/>
</svg>
