<svg width="360" height="78" viewBox="0 0 360 78" fill="none" xmlns="http://www.w3.org/2000/svg">
<path d="M40.5398 26.3884C41.7433 25.9088 42.9461 25.4384 44.2298 25.1994C47.1827 24.6504 50.7277 25.2919 53.1349 26.8641C53.1486 27.2435 53.0166 27.5874 52.7899 27.9074C48.7686 33.5855 43.4124 37.2929 36.7138 39.0116C33.9312 39.7256 31.0982 39.953 28.2415 39.7657C24.2836 39.5058 20.5462 38.4171 17.0431 36.5295C16.753 36.373 16.4783 36.1817 16.2112 35.9867C10.9451 32.1244 5.68051 28.2582 0.415945 24.3921C0.315202 24.318 0.217513 24.2386 0 24.0705C0.3671 23.9402 0.634984 23.8392 0.906684 23.7505C8.83406 21.1644 16.763 18.582 24.6896 15.9943C39.0217 11.3162 53.3524 6.63661 67.683 1.95775C69.3262 1.42108 70.9686 0.881334 72.6103 0.340042C72.7904 0.28067 73.0422 0.30226 73.0354 0C73.188 0 73.3406 0 73.4933 0C73.504 0.333874 73.5238 0.666976 73.5246 1.00085C73.5345 5.36974 73.5414 9.7394 73.549 14.1083C73.5864 35.1061 73.6238 56.1039 73.6612 77.1025C73.6619 77.3592 73.6696 77.6183 73.6345 77.8705C73.6268 77.926 73.4498 77.9576 73.3506 78C71.9218 76.9328 70.5 75.8572 69.0644 74.7993C65.7987 72.3935 62.5421 69.9747 59.2519 67.6021C56.5151 65.6289 54.3629 63.1253 52.5922 60.2715C50.4698 56.8511 49.1342 53.1222 48.6526 49.1195C47.7574 41.6826 49.4807 34.9025 53.8538 28.8327C54.053 28.5566 54.3308 28.3384 54.614 28.05C58.3155 31.3163 59.8022 35.3374 59.3496 40.3085C61.2737 37.7709 62.0849 35.0398 61.8644 32.0156C61.643 28.9792 60.3967 26.3907 58.2384 24.2386C59.1451 22.5939 59.7228 20.8845 59.8144 19.0285C59.8213 18.9691 59.8281 18.9105 59.8358 18.8511C59.8007 18.8812 59.7656 18.9113 59.7305 18.9414C58.4628 19.4017 57.434 20.226 56.4601 21.1327C56.1442 21.4273 55.829 21.7226 55.4573 22.0696C55.2909 22.001 55.0604 21.9077 54.8307 21.8121C49.8287 19.7209 44.0635 21.297 40.8328 25.6427C40.6825 25.8455 40.5672 26.0745 40.4367 26.292C40.4344 26.3537 40.4314 26.4146 40.4276 26.4763C40.4665 26.4477 40.5031 26.4184 40.5398 26.3884Z" fill="#5124EA"/>
<path d="M122.911 59.0979C120.813 59.0979 118.713 59.0979 116.559 59.0979C116.559 57.9922 116.559 56.9243 116.559 55.7229C116.397 55.8502 116.321 55.8903 116.269 55.9519C113.867 58.7895 110.751 59.9492 107.131 59.9037C99.9658 59.8135 94.3273 54.7491 93.026 47.7508C92.2269 43.4544 92.7253 39.3199 95.079 35.5957C98.1639 30.7148 102.678 28.4941 108.39 28.8041C111.568 28.9768 114.214 30.2961 116.285 32.7581C116.33 32.8113 116.391 32.8507 116.521 32.9609C116.521 31.8005 116.521 30.7125 116.521 29.6445C117.113 29.4757 121.759 29.4325 122.911 29.5736C122.911 39.3971 122.911 49.2259 122.911 59.0979ZM98.8172 44.2594C98.7943 46.2033 99.2094 48.0454 100.224 49.6993C102.168 52.8684 105.095 54.1191 108.672 53.7559C112.211 53.3966 114.609 51.3972 115.869 48.0531C116.492 46.3976 116.62 44.6673 116.414 42.8977C115.98 39.1742 113.503 35.5093 108.956 34.9333C105.589 34.5069 102.709 35.4923 100.634 38.3314C99.3537 40.0818 98.8317 42.0989 98.8172 44.2594Z" fill="#5124EA"/>
<path d="M183.713 46.713C184.145 50.2962 186.411 53.1723 189.979 53.9781C193.002 54.6605 195.834 54.0413 198.532 52.638C199.319 52.2285 200.05 51.7134 200.892 51.1945C201.91 52.6649 202.95 54.167 204.018 55.7084C203.837 55.8734 203.681 56.0307 203.51 56.1687C201.04 58.1511 198.228 59.3023 195.106 59.7033C192.537 60.0333 189.975 60.0402 187.467 59.3154C182.82 57.9715 179.572 55.0175 177.994 50.3965C176.357 45.6035 176.54 40.8205 178.827 36.2612C180.896 32.1329 184.326 29.768 188.823 28.9838C191.505 28.5158 194.152 28.6684 196.701 29.6755C200.601 31.2161 203.075 34.1384 204.45 38.0678C205.407 40.8051 205.575 43.6357 205.338 46.5056C205.334 46.5511 205.296 46.5943 205.236 46.7146C198.09 46.713 190.906 46.713 183.713 46.713ZM198.83 41.7651C198.49 37.1795 195.242 34.3096 190.733 34.5309C186.978 34.7159 183.698 38.1233 183.786 41.7651C188.787 41.7651 193.788 41.7651 198.83 41.7651Z" fill="#5124EA"/>
<path d="M170.02 51.8452C170.873 53.5817 171.695 55.2557 172.536 56.9659C170.895 58.0917 169.173 58.9344 167.285 59.4287C165.056 60.0124 162.804 60.0818 160.557 59.6261C156.756 58.855 154.437 56.4863 153.494 52.7158C153.162 51.3911 153.018 50.0386 153.018 48.6715C153.019 44.5339 153.017 40.3971 153.016 36.2596C153.016 36.0066 153.016 35.753 153.016 35.4237C151.077 35.4237 149.184 35.4237 147.236 35.4237C147.236 33.4367 147.236 31.526 147.236 29.5435C149.117 29.5435 151.013 29.5435 152.976 29.5435C152.976 26.5317 152.976 23.5901 152.976 20.5922C155.141 20.5922 157.236 20.5922 159.407 20.5922C159.407 23.5191 159.407 26.4585 159.407 29.4757C163.179 29.4757 166.877 29.4757 170.631 29.4757C170.631 31.465 170.631 33.3765 170.631 35.3636C166.944 35.3636 163.24 35.3636 159.489 35.3636C159.468 35.6304 159.44 35.8262 159.44 36.0228C159.438 40.0833 159.421 44.143 159.453 48.2035C159.459 49.0162 159.559 49.8512 159.766 50.6354C160.284 52.5924 161.775 53.7289 163.779 53.813C165.316 53.8778 166.745 53.4467 168.125 52.8222C168.747 52.54 169.341 52.1976 170.02 51.8452Z" fill="#5124EA"/>
<path d="M133.639 59.0848C133.639 44.271 133.639 29.4989 133.639 14.6758C135.746 14.6758 137.843 14.6758 139.991 14.6758C139.991 29.4495 139.991 44.2394 139.991 59.0848C137.909 59.0848 135.813 59.0848 133.639 59.0848Z" fill="#5124EA"/>
<path d="M233.75 29.6037C233.241 31.728 232.742 33.813 232.229 35.9566C230.888 35.3559 229.543 35.0452 228.147 34.9303C224.307 34.6126 221.405 36.7184 220.646 40.492C220.459 41.4158 220.385 42.3765 220.38 43.3203C220.355 48.2783 220.368 53.2371 220.368 58.1958C220.368 58.4765 220.368 58.7564 220.368 59.0895C218.233 59.0895 216.141 59.0895 214.01 59.0895C214.01 49.2367 214.01 39.4125 214.01 29.5467C216.118 29.5467 218.188 29.5467 220.333 29.5467C220.333 30.5953 220.333 31.6039 220.333 32.7011C220.475 32.5831 220.538 32.5477 220.578 32.4952C222.144 30.4288 224.249 29.286 226.76 28.9036C228.895 28.579 231.018 28.6931 233.096 29.3362C233.308 29.4025 233.509 29.5043 233.75 29.6037Z" fill="#5124EA"/>
<path d="M59.7328 18.9429C59.7681 18.9128 59.8034 18.8827 59.8387 18.8527C59.8318 18.912 59.8241 18.9706 59.8172 19.03C59.7888 19.0015 59.7604 18.9722 59.7328 18.9429Z" fill="#5124EA"/>
<path d="M40.5404 26.3884C40.5035 26.4185 40.4667 26.4478 40.4291 26.4779C40.4321 26.4162 40.4352 26.3553 40.4383 26.2936C40.4751 26.3213 40.5097 26.353 40.5404 26.3884Z" fill="#5124EA"/>
</svg>
